<svg width="123" height="26" viewBox="0 0 123 26" fill="none" xmlns="http://www.w3.org/2000/svg">
<path d="M13.4586 24.7462L12.4786 19.4262H7.08859L6.14359 24.7462H0.683594L6.56359 0.491211H13.1436L19.0236 24.7462H13.4586ZM7.82359 15.4712H11.7786L9.78359 4.51621L7.82359 15.4712Z" fill="#FF0404"/>
<path d="M27.2087 0.491211V20.4062H34.8387L34.2787 24.7462H21.7137V0.491211H27.2087Z" fill="#FF0404"/>
<path d="M43.511 0.491211V24.7462H38.016V0.491211H43.511ZM55.201 0.491211L49.181 11.4112L55.726 24.7462H49.741L43.686 11.7962L49.776 0.491211H55.201Z" fill="#FF0404"/>
<path d="M63.8124 0.491211V24.7462H58.3174V0.491211H63.8124ZM75.5024 0.491211L69.4824 11.4112L76.0274 24.7462H70.0424L63.9874 11.7962L70.0774 0.491211H75.5024Z" fill="#FF0404"/>
<path d="M80.8587 19.2162C81.7221 19.2162 82.4338 19.5195 82.9938 20.1262C83.5537 20.7329 83.8337 21.4562 83.8337 22.2962C83.8337 23.1362 83.5537 23.8595 82.9938 24.4662C82.4338 25.0495 81.7221 25.3412 80.8587 25.3412C79.9721 25.3412 79.2487 25.0495 78.6888 24.4662C78.1521 23.8595 77.8838 23.1362 77.8838 22.2962C77.8838 21.4562 78.1521 20.7329 78.6888 20.1262C79.2487 19.5195 79.9721 19.2162 80.8587 19.2162Z" fill="#FF0404"/>
<path d="M98.6642 24.7462L94.7092 15.4012H94.5342H93.2042V24.7462H87.7092V0.491211H94.1842C100.204 0.491211 103.214 2.94121 103.214 7.84121C103.214 9.26454 102.911 10.5479 102.304 11.6912C101.721 12.8345 100.799 13.7212 99.5392 14.3512L104.509 24.7462H98.6642ZM94.3242 11.5862C95.4908 11.5862 96.3308 11.2945 96.8442 10.7112C97.3575 10.1045 97.6142 9.14788 97.6142 7.84121C97.6142 6.65121 97.3342 5.77621 96.7742 5.21621C96.2375 4.65621 95.3625 4.37621 94.1492 4.37621H93.2042V11.5862H94.3242Z" fill="#FF0404"/>
<path d="M122.773 17.7462C122.773 19.1929 122.469 20.4879 121.863 21.6312C121.256 22.7512 120.346 23.6495 119.133 24.3262C117.919 24.9795 116.426 25.3062 114.653 25.3062C111.993 25.3062 109.974 24.6179 108.598 23.2412C107.221 21.8645 106.533 20.0329 106.533 17.7462V0.491211H112.028V17.5012C112.028 18.7612 112.226 19.6945 112.623 20.3012C113.043 20.9079 113.719 21.2112 114.653 21.2112C115.586 21.2112 116.251 20.9079 116.648 20.3012C117.068 19.6945 117.278 18.7612 117.278 17.5012V0.491211H122.773V17.7462Z" fill="#FF0404"/>
<mask id="mask0_4335_3" style="mask-type:alpha" maskUnits="userSpaceOnUse" x="0" y="0" width="20" height="25">
<path d="M13.4586 24.7462L12.4786 19.4262H7.08859L6.14359 24.7462H0.683594L6.56359 0.491211H13.1436L19.0236 24.7462H13.4586ZM7.82359 15.4712H11.7786L9.78359 4.51621L7.82359 15.4712Z" fill="white"/>
</mask>
<g mask="url(#mask0_4335_3)">
<path d="M-1.15625 21.3679H20.297V27.7607H-1.15625V21.3679Z" fill="white"/>
</g>
</svg>
